/* XPM */
static char *e132afa6b1024439c2dea5b11bffff2bpwajJLH0RM1xYdwW[] = {
/* columns rows colors chars-per-pixel */
"64 64 172 2 ",
"   c #020203",
".  c #03050F",
"X  c #070915",
"o  c #131313",
"O  c #1A191A",
"+  c #13151F",
"@  c #2A1F0F",
"#  c #292219",
"$  c #3C2D1D",
"%  c #2E391E",
"&  c #171923",
"*  c #191B26",
"=  c #1B1D29",
"-  c #121529",
";  c #1A1E31",
":  c #1E2237",
">  c #1F2338",
",  c #1F2F37",
"<  c #162C2F",
"1  c #242424",
"2  c #24222D",
"3  c #2E2C2D",
"4  c #2F272A",
"5  c #312D2D",
"6  c #3D282F",
"7  c #262633",
"8  c #282934",
"9  c #282A3F",
"0  c #282637",
"q  c #302B37",
"w  c #21303A",
"e  c #383737",
"r  c #323629",
"t  c #422E0F",
"y  c #422517",
"u  c #453211",
"i  c #45393D",
"p  c #442F36",
"a  c #46411C",
"s  c #45492C",
"d  c #2D3044",
"f  c #3F3E53",
"g  c #2C2F43",
"h  c #473F41",
"j  c #3F414B",
"k  c #514549",
"l  c #444444",
"z  c #6A6A6A",
"x  c #686766",
"c  c #6F6F70",
"v  c #767676",
"b  c #7C7C7C",
"n  c #787876",
"m  c #CD362C",
"M  c #C97305",
"N  c #DD7B04",
"B  c #E9442E",
"V  c #EA482B",
"C  c #E64330",
"Z  c #BE3D51",
"A  c #D23B45",
"S  c #C23D50",
"D  c #807F7F",
"F  c #749F3B",
"G  c #5E9850",
"H  c #79BF5F",
"J  c #6CAB56",
"K  c #6DBD6E",
"L  c #7BC05F",
"P  c #FC8C06",
"I  c #FA830B",
"U  c #E39004",
"Y  c #FFA307",
"T  c #FFAB0C",
"R  c #C0B933",
"E  c #FFDA2E",
"W  c #E4C92D",
"Q  c #EAE43D",
"!  c #FFE134",
"~  c #F1E73D",
"^  c #81817E",
"/  c #9AC847",
"(  c #97C749",
")  c #A5CC46",
"_  c #2F3D8B",
"`  c #313F8F",
"'  c #453995",
"]  c #5F3FB7",
"[  c #633CB6",
"{  c #663FB8",
"}  c #344393",
"|  c #35459E",
" . c #3A4294",
".. c #3747A1",
"X. c #3949A2",
"o. c #3748A2",
"O. c #3D4FB4",
"+. c #3F51B5",
"@. c #464086",
"#. c #624C9A",
"$. c #534EA6",
"%. c #504EA8",
"&. c #444EB5",
"*. c #5B47BE",
"=. c #5E4ABF",
"-. c #4254B6",
";. c #4254B8",
":. c #505BB1",
">. c #7452BF",
",. c #754CBD",
"<. c #4F60BB",
"1. c #5262BC",
"2. c #5962BE",
"3. c #5251C4",
"4. c #6B5BC6",
"5. c #7C67C8",
"6. c #6473C3",
"7. c #D87395",
"8. c #0080BA",
"9. c #0890D5",
"0. c #1FAFD0",
"q. c #11AADF",
"w. c #0E9BEE",
"e. c #1791E8",
"r. c #109EEF",
"t. c #13ADE0",
"y. c #17A8F3",
"u. c #838182",
"i. c #8C8C8C",
"p. c #8A8485",
"a. c #928F8F",
"s. c #958F90",
"d. c #939191",
"f. c #999494",
"g. c #9D9D9D",
"h. c #A3A3A3",
"j. c #ACA3A4",
"k. c #AFA4BF",
"l. c #B5B5B5",
"z. c #CB9EAD",
"x. c #C697A7",
"c. c #DB9DB2",
"v. c #F488AD",
"b. c #F387AC",
"n. c #F68FB2",
"m. c #D9A3B6",
"M. c #C9BABC",
"N. c #C4B2B5",
"B. c #CFA7AE",
"V. c #8A95D2",
"C. c #ADB5DF",
"Z. c #A7ACCC",
"A. c #AEB5E0",
"S. c #B3BAE2",
"D. c #B4B7E5",
"F. c #BAADE0",
"G. c #F7B2CA",
"H. c #F9B3CB",
"J. c #F8B9CF",
"K. c #F6B8CD",
"L. c #F9BCD1",
"P. c #DEC0C7",
"I. c #DEC7CB",
"U. c #DFC8CD",
"Y. c #E9C2C6",
"T. c #ECC5C9",
"R. c #E2CED1",
"E. c #FBC3D5",
"W. c #FBC7D8",
"Q. c #CACFEA",
"!. c #FFE4EA",
"~. c #FFEBEE",
/* pixels */
"+.+.+.+.+.+.+.+.+.+.+.+.+.+.+.+.+.+.+.+.+.+.+.+.+.+.+.+.+.+.+.+.+.+.+.+.+.+.+.+.+.+.+.+.+.+.+.+.+.+.+.+.+.+.-.1.-.-.-.O.-.O.+.+.",
"+.+.+.+.+.+.+.+.+.+.+.+.+.+.+.+.+.+.+.+.+.+.+.+.+.+.+.+.+.+.+.+.+.+.+.+.+.+.+.+.+.+.+.+.+.+.+.+.+.+.+.+.+.O.1.C.1.O.O.O.O.-.+.+.",
"+.+.+.+.+.+.+.+.+.+.+.+.+.+.+.+.+.+.+.+.+.+.+.+.+.+.+.+.+.+.+.+.+.+.+.-.+.+.+.+.+.+.+.+.+.+.+.+.+.+.+.+.+.+.-.1.-.-.O.-.+.+.+.+.",
"+.+.+.+.+.+.+.+.+.+.+.+.+.+.+.+.+.+.+.+.+.+.+.+.+.+.+.+.+.+.+.+.+.+.+.+.+.+.+.+.+.+.+.+.+.+.+.+.+.+.+.+.+.+.+.+.-.O.-.O.+.+.+.+.",
"+.+.-.+.+.+.+.+.+.+.+.+.+.+.+.+.+.+.+.+.+.+.+.+.+.+.+.+.+.+.+.+.+.+.+.+.+.+.+.+.+.+.+.+.+.+.+.+.+.+.+.+.+.+.+.+.+.+.+.+.+.O.O.-.",
"+.+.+.+.+.+.+.+.+.+.+.+.+.+.+.+.+.+.+.+.+.+.+.+.+.+.+.+.+.+.+.+.+.+.-.1.-.+.+.+.+.+.+.+.+.+.+.+.+.+.+.+.+.+.+.+.+.+.+.+.+.-.-.O.",
"+.+.+.+.+.+.+.+.+.+.-.O.+.+.+.+.+.+.+.+.+.+.+.+.+.+.+.+.+.+.+.+.+.+.1.C.1.+.+.+.+.+.+.+.+.+.+.+.+.+.+.+.+.+.+.+.+.+.+.+.O.-.O.+.",
"+.+.+.+.+.+.+.+.+.+.+.+.+.+.+.+.+.+.+.+.+.+.+.+.+.+.+.+.+.+.+.+.+.+.-.1.-.+.+.+.+.+.+.+.+.+.+.+.+.+.+.+.-.O.+.+.+.+.+.+.+.+.+.+.",
"+.+.+.+.O.-.-.+.+.+.+.+.O.+.+.+.+.+.+.+.+.+.+.+.+.+.+.+.+.+.+.+.+.+.+.O.+.+.+.+.+.+.+.+.+.+.+.+.+.+.+.+.+.+.+.+.+.+.+.-.O.+.+.+.",
"+.+.+.+.-.O.O.+.+.+.+.-.1.-.+.+.+.+.+.+.+.+.+.+.+.+.+.+.+.+.+.+.+.+.+.+.+.+.+.+.+.+.+.+.+.+.+.+.+.+.+.+.+.+.+.O.+.+.+.+.+.+.+.+.",
"+.+.+.+.O.+.+.+.+.+.O.1.C.1.O.-.+.+.+.+.+.+.+.1.-.+.+.+.+.+.+.+.+.+.+.+.+.+.+.+.+.+.+.+.+.+.+.+.+.+.O.+.+.+.O.-.-.-.O.+.+.+.+.+.",
"+.+.O.-.+.+.+.+.+.+.-.-.1.-.-.O.+.+.+.+.+.-.6.S.6.-.+.+.+.+.+.+.+.+.+.+.+.+.+.+.+.+.+.+.+.+.+.+.+.+.-.O.-.O.-.O.O.O.-.O.+.+.+.+.",
"+.+.+.+.+.+.+.+.+.+.+.+.O.O.-.O.+.+.+.+.+.1.S.V.S.1.+.+.+.+.+.+.+.+.+.+.+.+.+.+.+.+.O.+.+.+.+.+.-.+.+.+.-.1.-.-.+.+.+.+.+.+.+.+.",
"+.+.+.+.+.+.+.+.+.+.+.+.O.-.-.+.+.+.+.+.+.+.6.S.6.+.+.+.+.+.+.+.+.+.+.+.+.+.+.+.+.-.1.-.+.+.+.+.O.+.-.O.1.A.1.O.+.+.+.+.+.+.-.+.",
"O.-.-.O.+.+.+.+.+.+.+.+.+.+.O.+.+.+.+.+.+.+.;.1.+.+.+.+.+.+.+.+.+.+.+.+.+.+.+.+.-.6.S.6.+.+.+.+.+.+.O.+.-.1.-.+.+.+.O.+.+.O.O.O.",
"+.O.-.O.+.+.+.+.O.-.+.+.+.+.+.+.+.+.+.+.+.+.+.+.+.+.+.+.+.-.1.;.+.+.+.+.+.+.+.+.1.S.V.S.1.+.+.+.+.+.+.+.O.O.-.+.+.+.-.+.+.-.O.-.",
"+.+.+.+.+.+.+.+.+.+.+.+.+.+.+.+.+.+.+.+.+.+.+.+.+.+.+.+.+.1.A.1.+.+.+.+.+.+.+.+.-.6.S.6.+.+.+.+.+.+.+.+.+.-.O.O.-.O.+.+.+.+.+.+.",
"-.+.+.+.+.+.+.+.+.+.+.+.+.+.+.+.+.+.+.+.+.+.+.+.+.+.+.+.+.+.1.;.+.+.+.+.+.+.+.+.+.+.1.-.+.+.+.+.-.O.+.+.+.+.O.-.+.+.+.+.+.+.+.+.",
"O.+.+.+.O.-.+.+.+.+.+.+.+.+.+.+.+.+.+.+.+.+.+.+.+.+.+.+.+.+.+.+.+.+.+.+.+.+.+.+.+.+.+.+.+.+.+.+.+.+.+.+.+.+.+.+.+.+.+.+.O.-.+.+.",
"+.+.+.+.+.O.-.O.+.+.+.+.+.+.+.+.+.+.+.+.+.+.+.+.+.+.+.+.+.+.+.+.+.+.+.+.+.+.+.+.+.+.+.+.+.+.+.+.+.+.+.+.+.+.+.+.-.O.+.+.O.+.+.+.",
"+.+.O.-.+.-.-.1.-.+.+.+.+.+.+.+.+.+.+.+.+.+.+.+.+.+.+.+.+.+.+.+.+.+.+.+.+.+.+.+.+.+.+.+.+.+.+.+.+.+.-.O.+.+.+.+.+.+.+.+.-.O.+.+.",
"+.O.-.O.+.O.1.A.1.+.+.+.+.+.+.+.+.+.+.+.+.+.+.+.+.+.+.+.+.+.+.+.+.+.+.+.+.+.+.+.+.+.+.+.+.+.+.+.+.+.O.-.-.+.+.+.+.+.+.+.O.-.+.+.",
"-.O.-.O.-.O.-.1.-.+.+.+.+.+.+.+.+.+.+.+.+.+.+.+.+.+.+.+.+.+.+.+.+.+.+.+.+.+.+.+.+.+.+.+.+.+.+.+.+.+.+.O.O.+.+.+.+.+.+.+.+.+.-.O.",
"+.+.+.+.O.-.O.O.+.+.+.+.+.+.+.+.+.+.+.+.+.+.+.+.+.+.+.+.+.+.+.+.+.+.+.+.+.+.+.+.+.+.+.+.+.+.+.+.+.+.-.O.+.+.+.+.-.+.+.+.+.+.+.+.",
"+.+.+.+.+.+.+.+.+.+.+.+.+.+.+.+.+.+.+.+.+.+.+.+.+.+.+.+.+.+.+.+.+.+.+.+.+.+.+.+.+.+.+.+.+.+.+.+.+.+.+.+.+.+.+.+.O.O.+.+.+.+.+.+.",
"+.+.+.+.+.+.+.+.+.+.+.O.+.+.+.+.+.+.+.+.+.+.+.+.+.+.+.+.+.+.+.+.+.+.+.+.+.+.+.+.+.O.+.+.+.+.+.+.+.+.+.+.-.+.+.+.O.-.+.+.+.+.+.+.",
"+.+.+.+.+.O.+.+.;.%.%.%.$.$.$.$.%.+.+.+.+.+.+.-.+.+.+...| | | | | | | | | | o.| | | ..+.+.+.+.+.+.+.+.+.O.+.+.+.-.+.+.O.+.+.+.+.",
"$.$.$.$.$.$.$.$.#.S A A A A A A S #.%.$.$.$.$.$.%.&.} 9 7 7 7 7 7 7 7 7 7 8 8 8 7 7 g } +.+.+.+.+.+.+.+.+.+.+.+.O.+.+.-.+.+.+.+.",
"A A A A A A A A A C B B B B B B C A A A A A A A Z @.j M.R.U.I.U.P.R.R.R.U.I.N.N.I.R.M.f } O.O.O.o...O.+.+.+.+.+.O.-.+.+.+.+.+.+.",
"C C B B B C B B V I P P P P P P P V B C m m B V m 6 M.~.~.W.E.L.E.E.L.L.K.z.l h B.!.!.M.9 ..-.} > > } O.+.+.+.+.O.+.+.+.-.O.+.+.",
"P P P P P P P P P Y Y Y Y Y Y Y Y P P M y y M P N $ R.!.E.K.G.v.G.J.G.G.7.p b b k x.E.R.2 ` } g b b : ..+.+.+.+.-.O.+.+.+.+.+.+.",
"Y Y Y Y Y Y Y Y T E ! ! ! ! ! ! E T U u b b y M M $ U.W.K.K.K.G.J.G.b.G.c.4 i.g.^ k x.N.O . & b h.i.= | +.O.-.+.O.-.+.+.+.+.+.+.",
"! ! ! ! ! ! ! ! ! ~ ~ ~ ~ ~ ~ ~ ~ ! W a D i.% # @ # U.W.G.v.G.L.J.J.G.L.m.4 i.g.g.u.e 3 o o 1 d.h.i.* | +.+.+.+.+.+.+.+.+.+.+.+.",
"~ ~ ~ ~ ~ ~ ~ ~ Q ) ( / / / / / ) Q ~ R s b b i.b 3 I.W.L.G.K.G.J.J.G.K.x.e a.h.h.d.i.i.i.i.d.h.d.i.8 } +.+.+.+.+.+.+.+.+.+.+.+.",
"( / / / / / / / ( L H L L L L L L / / / F % r ^ n 8 U.J.J.L.G.v.G.G.v.m.i D g.h.l.h i.g.g.i.h.l.d i.G 9 X.+.+.+.+.+.+.+.+.+.+.+.",
"L L L L L L L L K 0.t.t.t.t.q.q.0.K H H H J G w - 1 P.v.G.L.J.G.J.J.H.m.5 i.j.f.e 1 a.h.d.l u.e 4 f.f.; | +.+.+.+.+.+.+.+.+.+.+.",
"t.t.t.t.t.t.q.t.t.r.w.w.w.w.w.w.w.q.q.t.q.q.q.9.8.w I.J.G.J.J.G.L.L.H.m.4 a.T.K.a.D g.g.s.f.j.G s.K.B.2 | -.+.+.+.+.+.+.+.+.+.+.",
"w.w.w.w.w.w.w.w.e.3.*.*.*.*.*.*.3.e.w.r.r.r.y.y.9.w Y.E.v.G.G.v.H.H.b.c.i p.Y.Y.f.q n b r #.D 5 d.K.z.9 | +.+.+.+.+.+.+.+.+.+.+.",
"*.*.*.*.*.*.*.*.*.[ [ [ [ [ [ [ [ *.*.=.4.4.S.5.' 2 R.!.J.J.J.G.J.G.H.H.c.h p.h.a.1 1 1 O 1 1 1 i.p.8 } +.+.+.+.+.+.+.+.+.-.+.+.",
"[ [ [ [ [ [ [ [ [ [ &.-.&.&.&.&.[ *.,.>.F.>.5.Z.8 O M.~.!.W.E.W.L.n.L.E.L.c.k J i.n n n b n v b b 3 + ..-.+.+.+.+.+.+.+.+.+.+.+.",
"&.&.&.&.&.&.&.&.-.-.-.+.+.+.+.+.&.2.F.2.1.-. .l v 1 3 M.R.U.U.U.I.K.P.I.U.U.j.1 o o o o o o o o 4 #.= | +.+.+.+.+.+.+.+.+.+.+.+.",
"+.+.+.+.+.+.+.+.+.+.+.+.+.+.+.+.&.-.1.-.+.| > b g.c & = 1 5 q 5 ; : 7 : 7 7 7 X   o o o   X X   # G = | +.+.+.+.+.+.+.+.+.+.+.+.",
"+.+.+.+.+.+.+.+.+.+.+.+.+.+.+.+.-.-.<.-.+.| & b b d } _ + x v x ; _ ..| ..| o._ & x n z ; _ } ; c n * | +.+.+.+.+.+.+.+.+.+.+.+.",
"+.+.+.+.+.+.+.+.+.+.+.+.+.+.+.+.O.<.C.1.O.X.7 * : } +.X.- * = > } O.O.+.+.+.+.o.- * = : } +.+.} 7 * - X.+.+.+.+.+.+.+.+.+.+.+.+.",
"+.+.+.+.+.+.+.+.+.+.+.+.-.1.-.+.+.-.1.;.1.1.Z.%...+.+.O.o.| | ..+.+.+.+.+.+.+.+...| o.o.+.+.+.+...| ..O.+.+.+.+.+.+.+.+.+.+.+.+.",
"+.+.+.+.+.+.+.+.+.+.-.1.1.A.1.+.+.+.+.1.A.1.1.+.+.+.+.+.+.+.-.+.+.+.+.+.+.+.+.+.+.+.+.+.+.+.+.+.-.-.+.-.+.+.+.+.+.+.+.+.+.+.+.+.",
"+.+.+.+.+.+.+.+.+.+.1.C.1.1.-.1.-.+.+.;.1.+.+.+.+.+.+.+.+.+.+.+.+.+.+.+.+.+.+.+.+.+.+.+.+.+.+.+.+.+.+.+.+.+.+.-.+.+.+.+.+.+.+.+.",
"+.+.+.+.+.+.+.+.-.-.1.1.-.+.1.A.1.+.+.+.+.+.+.+.+.+.+.+.+.+.+.+.+.+.+.+.+.+.+.+.+.+.+.+.+.+.+.+.+.+.+.+.+.+.+.+.+.+.+.+.+.+.+.+.",
"+.+.+.+.+.+.+.+.+.1.A.1.+.+.-.1.1.-.-.-.O.-.+.+.+.+.+.+.+.-.O.+.+.+.+.+.O.O.+.+.+.+.+.+.O.-.O.O.+.+.+.+.+.+.+.+.+.+.+.+.+.+.+.+.",
"+.+.+.+.+.+.+.+.+.-.1.1.-.+.+.1.C.1.-.O.+.O.+.+.-.O.+.+.+.+.+.+.+.+.+.O.-.-.+.+.+.+.+.+.+.O.-.-.+.+.+.+.+.+.+.+.+.+.+.+.+.+.+.+.",
"+.+.+.+.+.+.+.+.+.+.1.A.1.+.+.1.1.-.+.+.+.+.+.+.+.+.+.+.O.+.O.O.+.+.+.-.O.-.+.+.+.+.+.+.+.+.+.+.+.+.+.+.O.+.+.+.+.+.+.+.+.+.+.+.",
"+.+.+.+.+.+.+.+.+.+.+.1.-.1.1.C.1.O.+.+.+.+.+.+.+.+.+.+.-.O.-.-.+.+.+.+.+.O.+.+.+.+.+.O.-.+.+.+.+.+.+.-.1.-.+.+.+.+.+.+.+.+.+.+.",
"+.+.+.+.+.+.+.+.+.+.+.+.1.S.1.1.-.-.O.+.+.+.+.+.+.+.+.+.+.+.+.+.+.+.+.+.+.+.+.+.+.+.+.+.+.+.+.+.+.+.-.6.S.6.-.+.+.+.+.+.+.+.+.+.",
"+.+.+.+.+.+.+.+.+.+.+.+.-.1.-.+.+.+.+.+.+.O.-.+.+.+.+.+.+.+.+.+.+.+.+.+.+.+.+.+.+.+.O.-.+.+.+.+.-.O.1.S.V.S.1.O.+.+.+.+.+.+.+.+.",
"+.+.+.+.+.-.1.+.+.+.+.+.+.+.+.+.+.+.+.+.+.+.O.+.+.+.+.+.+.+.+.+.O.-.+.+.+.+.O.-.+.+.O.-.+.+.+.+.O.+.-.6.S.6.-.+.+.+.+.+.+.+.+.+.",
"+.+.+.+.+.6.Q.1.+.+.+.+.+.+.+.+.+.+.+.+.+.+.-.O.+.+.-.O.+.+.+.+.-.O.O.-.+.+.+.+.+.O.-.O.+.+.+.+.+.+.+.-.1.+.O.+.+.+.+.+.+.+.+.+.",
"+.+.+.-.6.Q.Q.1.+.+.+.+.+.+.+.+.+.+.+.+.+.+.O.-.+.+.+.+.O.-.-.+.O.+.+.+.+.+.+.+.+.+.+.+.+.+.O.+.+.+.+.+.O.+.+.+.+.+.+.+.+.+.+.+.",
"+.+.+.1.S.6.1.+.+.+.+.+.+.+.+.+.+.+.+.+.+.+.O.-.+.+.+.+.-.O.O.+.+.+.+.+.+.+.+.+.+.+.+.+.+.+.-.+.+.+.+.+.+.+.+.+.+.+.+.+.+.+.+.+.",
"+.+.+.-.1.-.+.+.+.+.+.+.+.+.+.+.O.+.+.+.+.+.+.+.+.+.O.+.O.+.+.+.+.+.+.+.O.-.+.+.O.+.+.+.+.+.+.+.+.+.+.+.+.+.+.+.+.+.+.+.+.+.+.+.",
"+.+.+.-.+.-.+.+.+.+.+.+.+.+.+.+.-.+.+.O.+.+.+.+.+.+.-.+.+.+.+.+.-.O.+.+.+.+.+.+.-.+.+.+.+.+.+.+.+.+.+.+.O.-.+.+.+.+.+.+.+.+.+.+.",
"+.+.+.+.+.+.+.+.+.+.+.+.+.+.+.+.-.O.O.-.+.+.+.+.+.+.+.+.+.+.+.+.O.-.O.O.+.+.+.+.+.+.+.+.+.+.+.+.+.+.+.+.+.+.+.+.+.+.+.+.+.+.+.+.",
"+.+.+.+.+.+.+.+.+.+.+.+.+.+.+.+.+.+.-.O.+.+.+.O.+.+.+.+.+.+.+.+.+.O.-.-.+.+.+.+.+.+.+.+.+.+.+.+.+.+.O.-.+.+.+.+.+.+.+.+.+.+.+.+.",
"+.+.+.+.+.+.+.+.+.+.+.+.+.+.+.+.+.+.+.+.+.+.+.-.O.-.-.O.+.+.+.+.+.+.+.+.+.+.+.+.+.+.+.+.+.-.+.+.+.+.+.+.+.+.+.+.+.+.+.+.+.+.-.+.",
"+.+.+.+.+.+.+.+.+.+.+.+.+.+.+.+.+.+.+.+.+.+.+.+.+.O.-.O.+.+.+.O.-.+.+.+.+.+.+.+.+.+.+.+.+.O.+.+.+.+.+.+.+.+.+.+.+.+.+.+.+.+.+.+."
};
