/* XPM */
static char *a382ccb8ace342c1ad9617ad780dfd95H6bATo4K78E9BIKR[] = {
/* columns rows colors chars-per-pixel */
"32 32 5 1 ",
"  c #53331A",
". c #7E5231",
"X c #C08A44",
"o c #C9B972",
"O c #DADEA9",
/* pixels */
"... .XoooX.   ...   oooXXXX. .o.",
"..  ..o....         XoOOoX.. .X.",
".   ..X....    XXXX  .Xo.... ...",
"     .X...     ooXX.  .X....  ..",
"      ....XXXX XoOoX.  ....     ",
" XXXX.   XXXXX. .o...      ...  ",
" XXXXX  .oXXXXX .X...    oXXXXX.",
" oXXX.. Xooooo.  ...    .ooXXX..",
" oOOo.. XOOOX...   .XX. .XOOoX..",
" XooX.. XoX..... .oXXXX  .oX....",
"  .X... Xo...... ooXXXX. .XX....",
"   ...  .X.....  XOOoX..  .X... ",
"         .....   XXoX...   ...  ",
" .XXXX.   ...    .Xo....        ",
" oooXXX.    .XXX  .X... .XXX.   ",
" XoOOOoX. .ooXX..  .....oXXXX   ",
"X.XXXoX.. XoOOoX.   .. ooXX.. .X",
"XX ..o... .XXoX.      .oOoX. .XX",
"oX. .X...  ..X.. XXX  .XoX.. ooo",
"X.. ....     .. ooXX. .Xo..  XoO",
"...     XXX.    XOo.. ..X..  ..X",
"..     .oXXX.   .oX..  ...    ..",
" .XXX. .ooXX.   .X...     .XX.  ",
"XooXXX .OOoo.    ... .XXX XooX. ",
".oOOoX .Xo...       .XXXX .XOo. ",
"..XoX.  .X.. .XX.  .XXXo. ..o.. ",
"...X.    .. .XXXX  oXoo.. ..X.. ",
"   ..       XoXXX. oOo...  ...  ",
"XXX  XXX.   XoOo.. .oX..     .XX",
"ooX .oXXXX. ..oX.. .X..      Xoo",
"oX. .oXXXXX ..o..      .XX.  oOO",
"... .oOOOoX  .X..   oXXXXXX. Xo."
};
