/* XPM */
static char *a4c634dfeba049ddcf48051cdd708a26atJ4vRxfNiTOmeuR[] = {
/* columns rows colors chars-per-pixel */
"32 32 5 1 ",
"  c #406B81",
". c #559CAC",
"X c #6FC2C1",
"o c #C7DCDA",
"O c #EEF6F5",
/* pixels */
"XoooOOOOX .oooooXXoo..  oOooOOoo",
"XooooOOo. XoooooXXXX.. .OoooOOoX",
"ooooOOOX  oooooXXXXX.  oOooOOooX",
"ooooOOo.  oooooXXXX.. .OoooOOoXX",
"ooooOOX  .ooooXXXX..  oOooOOOoXo",
"oooOOO.  XooooXXXX..  ooooOOooXo",
"oooOOo   XXXXXXXXX.  .oooOOOoXoo",
"ooOOOX   .XXXXXXXX. .ooooOOOoXoo",
"ooOOo.     ..XXXX....oooOOOooooo",
"ooOOX    ....XXXX...ooooOOOoXooo",
"oOOo.   ..XX.XXX....oooOOOoooooX",
"oOOX   ...XX XXX...ooooOOOoXoooo",
"oOo.   ..XXX .XX...ooooOOooXooXo",
"oOX   .XXXX.  XXX..oooOOOooooooo",
"ooX   .XXXX.. XXX.ooooOOOoXooXoo",
"oX.  .XXXoXXX.XXXooooOOOoooooXoo",
"oX   .XXoXXXX.XXXooooOOOoooOXXoo",
"X.  .XXXoXooX.XXoooooOOoooOoXXoo",
"X.  .XXoXXoo.XXXooooOOOoooOXXooo",
"X  .XXXoXoOo.XX.ooooOOoooOoXXooX",
".  .XXoXXoO..XX.ooooOOoooOXXXooX",
". .XXXoXoOo.XXX.oooOOOooOoXXXXXX",
"...XXoXXoO..XX.XoooOOoooOoX...X.",
"..XXXoXoOoXXXX.oooOOOooOoXX ..X.",
"..XXoXooOXXXX.XoooOOoooOoX. oo..",
"..XXoooOoooX..ooooOOooOoX. .Oo .",
".XXoXooOooo...ooooooooOX.  oOo  ",
"oXXoooOoOoo..Xooooooooo.  .Oo..o",
"oXoXooOOOo. .oooooooooX   oOoooo",
"oXXooOoOOo. Xooooooooo.  .Oooooo",
"XXoooOOOO. .oooooooooX.  oOooOoo",
"XXooOoOOo. XooooXoooX.  .OooOOoo"
};
