/* XPM */
static char *_b5b07fddbe04db5a92b3465cd072ea5sQ7KkIRity47pHzI[] = {
/* columns rows colors chars-per-pixel */
"32 32 6 1 ",
"  c #090025",
". c #2D2546",
"X c #5C3750",
"o c #577644",
"O c #8DA6B9",
"+ c #BED4D5",
/* pixels */
"OOOooooOoooXXX+++OOOoXXooooX...o",
"OOOoooooXXXXXXOOoooooXXXooX.   .",
"oOoooo...XXXX.OOooooXXX.OOOOooX.",
".ooo.oOOOOoXX.oOooXXXX.o+OOOOoo.",
".   .OOOOOOoo   ..XXX. oO++OoXXX",
"ooXX.+OOOOOoo. .OOOOo. oOOooXXXo",
"oooo.O+++OXXXo.OOOOOOXXXOoooXXoo",
"OOOoXOOoooXXXoo+OOOOOXX.XooX.oOO",
"OOOoooOoooXX.ooO++OOXXXX.  .oOOO",
"OOOooXoooXX..ooOOoooXXXXX. o+OOO",
"OOOoX.      .XoOOooXXoOOOoXoO++O",
"OooXX..XOOOOoXXoOooXoOOOOOX.oOOO",
"XX.  XoOOOOOOXX. ..X+OOOOOo.oOOo",
".   oo+OOOOOOX.   ..O++OOooX.XXX",
"OOOOooO+++OooX .OOOOoOOooXXX..XO",
"OOOOooOOOooXXX.+OOOOXoooXXXX.X+O",
"+OOooXoOOooXXX.O++OoX.oXXXXXXoO+",
"OOooXXoOooXXX..oOOoXX...XXXXooOO",
"OooXX.XoooXXX..oOooX...oOOOOOoOO",
"OXXXX.. oOOOoX..ooX.  +OOOOOOooO",
".XXX..  OOOOOoX.     .O++++OoXXX",
"..OOOOOoO+OOOooX...oooOOOOoooXXX",
" OOOOOOooO++OXOOOOOoooOOoooXXXXX",
" +OOOOOoXOOooOOOOOOooXoOoooXXXX.",
" O+++ooXXoooX+OOOOOoXXXXoo..    ",
" OOoooXXXoX..O++OOoXXXXoOOOOOoo.",
" oOoooXXXX.  OOOoooXXXXOOOOOOOoo",
" .ooooXXX.   oOOoooXX.o+OOOOOoXX",
".XXXX..oOOOOo.oOoooX..oO++OOoXXX",
"oOOOOo.+OOOOo...XXX.  oOOOoooXXX",
"OOOOOooO++Oooo.oOOOOOooOOooXXXXo",
"+++OoooOOooXXXoOOOOOOXooOooXXXXO"
};
