/* XPM */
static char *_7155f3035f144cf8b071aa983e768993b5gs9blrUCGZCDh[] = {
/* columns rows colors chars-per-pixel */
"43 43 2 1 ",
"  c 0",
". c red",
/* pixels */
"                                           ",
"                                           ",
"                                           ",
"                                           ",
"                                           ",
"                                           ",
"                                           ",
"                                           ",
"                                           ",
"                                           ",
"                 .........                 ",
"               .............               ",
"              ...............              ",
"             .................             ",
"            ...................            ",
"            ...................            ",
"           .....................           ",
"           .....................           ",
"           .....................           ",
"           ......................          ",
"          .......................          ",
"          .......................          ",
"           .....................           ",
"           .....................           ",
"           .....................           ",
"            ...................            ",
"            ...................            ",
"             .................             ",
"              ...............              ",
"               .............               ",
"                 .........                 ",
"                    ...                    ",
"                                           ",
"                                           ",
"                                           ",
"                                           ",
"                                           ",
"                                           ",
"                                           ",
"                                           ",
"                                           ",
"                                           ",
"                                           "
};
