/* XPM */
static char *_769170b3c2241f1e89e39e067172b6ffaQLxsQ2IfdhfZuy[] = {
/* columns rows colors chars-per-pixel */
"43 43 80 1 ",
"  c gray63",
". c #A2A2A2",
"X c #A9A9A9",
"o c gray67",
"O c #AEAEAE",
"+ c #AFAFAF",
"@ c gray69",
"# c #B1B1B1",
"$ c #B2B2B2",
"% c gray70",
"& c #B4B4B4",
"* c gray71",
"= c #B6B6B6",
"- c #B7B7B7",
"; c gray72",
": c #B9B9B9",
"> c gray73",
", c #BBBBBB",
"< c #BCBCBC",
"1 c gray74",
"2 c gray",
"3 c gray75",
"4 c #C0C0C0",
"5 c #C1C1C1",
"6 c gray76",
"7 c #C3C3C3",
"8 c gray77",
"9 c #C5C5C5",
"0 c #C6C6C6",
"q c gray78",
"w c #C8C8C8",
"e c gray79",
"r c #CACACA",
"t c #CBCBCB",
"y c gray80",
"u c #CDCDCD",
"i c #CECECE",
"p c gray81",
"a c #D0D0D0",
"s c gray82",
"d c #D2D2D2",
"f c LightGray",
"g c gray83",
"h c #D5D5D5",
"j c gray84",
"k c #D7D7D7",
"l c #D8D8D8",
"z c gray85",
"x c #DADADA",
"c c gray86",
"v c gainsboro",
"b c #DDDDDD",
"n c gray87",
"m c #DFDFDF",
"M c gray88",
"N c #E1E1E1",
"B c #E2E2E2",
"V c gray89",
"C c #E4E4E4",
"Z c gray90",
"A c #E6E6E6",
"S c #E7E7E7",
"D c gray91",
"F c #E9E9E9",
"G c #EAEAEA",
"H c gray92",
"J c #ECECEC",
"K c gray93",
"L c #EEEEEE",
"P c #EFEFEF",
"I c gray94",
"U c #F1F1F1",
"Y c gray95",
"T c #F3F3F3",
"R c #F4F4F4",
"E c gray96",
"W c #F6F6F6",
"Q c #F8F8F8",
"! c #F9F9F9",
"~ c #FBFBFB",
/* pixels */
"FCFCFFNNCCFNLNCFmNm5LNCmCCmmCmzNCFCNNmN>CFC",
"LCCNNNNFNCFNNmNmmCg>CmNFFLFNCIFCCLFFFFN@FCF",
"zzmNNCNCCFFzgmNNmCm8NmzNmNLCCIRFmCCNLFm=NNN",
"irrr885r85zfifi588i85r8<><ri5=88>85>55<=@==",
"CNCNCFCLNiFmNNFCCCCFNCLCCCFCm@FCNFCNFNCLNCC",
"FFFFFFNmm<FNLCCNNCNNCCNFFFCNC@RCLFFFICCCCFL",
"NzmmzNmCC<CmmmCCFLFLLLNCFFFCCXLmCNFCLNNNCCF",
"NNFFCNNCC5IFNFCCFNNFNFLCCCFFCXFICCLCFFFCFFC",
"FLILCCCFN5NNFFLLFCFFLCFFCLNCm=NFNCFCFFNIIII",
"gr88fmmgi=rrriifigzggifgmCCCN8iifgi8858rggg",
"mmgirrrrfrfffggzizgimgfgffirr8<8ii8ii85 855",
"LLFCFFLLCFCFCCNCCFNrLFFFFLFCFLNFNNCLILNXFFF",
"FFLFNNCFNLCLFFFFFLF5LCFLNLCFFCNFFNFCNFC@LLF",
"RFNNFFFCCFCCCFCFmNN=LFCCNFmCCmCFIFLCCFCOFCF",
"LLLFNmNFLFFLFFCFCCm>LICFCFNLFCFCLCCFILC FCC",
"CNNFFLLLNmLLIRRRLICrCICILFLFCFFCCFNCFNLOILF",
"888r8<<558i<><>588r<85r5<r<5<gLmmNmmCCm<555",
"CCFCCFCCziLCLCNFCCLNFCFCFCFFmOiirr8ir58858r",
"FLLCFFFCC8IFLNNCCFFCFLLFCNLCF<LmICCLFCCImNC",
"FFFFFFFFCrIFCLLFCCCCCCCCLLFLN@LLLCLLFLCFFFC",
"CFLLLFFIm<ILCFFCFFCFCFCFCCFLN=LLLFRLCLFLLFC",
"CFFCCCCCC5LLICFLFFFCFCFFFLLCF<FNLCFLLFFFCFL",
"RRRIIIIFFfIIRIR~ILRLRIRIIIIRI<NRLFFIILFFFFL",
"i85ri8ri8<8r8r55<>5<8<<<>r>88=>>>555=@<<5>O",
"LCLCCFFICIFIFFLLILFgLFFLFFFFLFLIFFCIFLC@zmN",
"IFLFLFFILICFFLFCLLNrFFCFFFNCFCCLLCCLFLF=LII",
"IFLNLCFFCIFFLILFCFCiLFCCILFFLLFLLLLLLFFXIRR",
"RLLCLCLFCIFFFLFLFLCrIIFCFFLFCCCFFCLCLLL>LLI",
"LFFFFCFFNFLCFLIRCCm5FLFFCLLFFFFFFFLNCFL8FLI",
"LILIIIRI~R~LILFCILFzR~RRLFLLLRRIRR~IIILfFLL",
"8rrri8ir8>iiffgf5585rir8855r58rr55rirrr>555",
"LFLLRCLFNzIIFFLLLLLFFIFIIFLLmgNFFFFICFIIFLL",
"FCLmLNILCgRIIFFIIRFRLCFLLLLFNgRIFFLLLFFLLFL",
"LCLFRFLNCfLIILLIRICFFLIILLRLFgIFCLLFFLFCFFF",
"FFFFLFLFLfLILFLFLLIILILFCCLFCzLFCCFFFLLFFFF",
"FFFLLFLICiFILLIILF~IFIIRRRIFCmFFLLFCCCFFLFF",
"gzzzggffg8gmgiggfgFCCCmzzzzzzgNNNmzNCCLRNmm",
"NzggzmzgmfmNmmCCNmf8fgggzzzgfffigffffr8rggf",
"IFNNFFLFLFFFCFFFFFmzIILFLLILLLLLLIILLFNgRIL",
"FFLLLFLLFFFLIIFFFIzzILLLFILLLIFLFIILLIFgILF",
"CCCCFCFFFLCFLLFLCCNfFLILIILLLILLLLLLLIFfRFF",
"CFCCFLFLFLCCFFCLCFmiFFFLLLLLLLLFFLLLFFCiIFL",
"FFFFLIIII~LLIIFRLLNiFFLFLLIILIILLILIFLCrILR"
};
