/* XPM */
static char *b_wall[] = {
/* columns rows colors chars-per-pixel */
"64 64 78 1",
"  c #A2A2A2",
". c #A4A4A4",
"X c #A8A8A8",
"o c #ABABAB",
"O c #ACACAC",
"+ c #AEAEAE",
"@ c #B1B1B1",
"# c #B2B2B2",
"$ c #B3B3B3",
"% c #B4B4B4",
"& c #B5B5B5",
"* c #B6B6B6",
"= c #B7B7B7",
"- c #B8B8B8",
"; c #B9B9B9",
": c #BABABA",
"> c #BBBBBB",
", c #BCBCBC",
"< c #BDBDBD",
"1 c #BEBEBE",
"2 c #BFBFBF",
"3 c #C0C0C0",
"4 c #C1C1C1",
"5 c #C2C2C2",
"6 c #C3C3C3",
"7 c #C4C4C4",
"8 c #C5C5C5",
"9 c #C6C6C6",
"0 c #C7C7C7",
"q c #C8C8C8",
"w c #C9C9C9",
"e c #CACACA",
"r c #CBCBCB",
"t c #CCCCCC",
"y c #CDCDCD",
"u c #CECECE",
"i c #CFCFCF",
"p c #D0D0D0",
"a c #D1D1D1",
"s c #D2D2D2",
"d c #D3D3D3",
"f c #D4D4D4",
"g c #D5D5D5",
"h c #D6D6D6",
"j c #D7D7D7",
"k c #D8D8D8",
"l c #D9D9D9",
"z c #DADADA",
"x c #DBDBDB",
"c c #DCDCDC",
"v c #DDDDDD",
"b c #DEDEDE",
"n c #DFDFDF",
"m c #E0E0E0",
"M c #E1E1E1",
"N c #E2E2E2",
"B c #E3E3E3",
"V c #E4E4E4",
"C c #E5E5E5",
"Z c #E6E6E6",
"A c #E7E7E7",
"S c #E8E8E8",
"D c #E9E9E9",
"F c #EAEAEA",
"G c #EBEBEB",
"H c #ECECEC",
"J c #EDEDED",
"K c #EEEEEE",
"L c #EFEFEF",
"P c #F0F0F0",
"I c #F1F1F1",
"U c #F2F2F2",
"Y c #F3F3F3",
"T c #F4F4F4",
"R c #F6F6F6",
"E c #F7F7F7",
"W c #F8F8F8",
"Q c #F9F9F9",
/* pixels */
"DCCDCCDDCNNNNCCDNNGCNNCDbNbbwwGCNNNbCCNbbbCNbdNNNDCCNbNbNN2yNDCC",
"GDCCNNCCNNNCNNNDNNDNNNNNbNNl88DCNNNCCDCNNNNCCNNNCDDCCCCNNb*wCCCC",
"GDNNNNNNNNCCNNCDCNNbbNbbbNNs66NbbNCCDGGDNNCGGDCCCGGDDDDDCN#wDNDD",
"lllbbNbNNNNNNCDDNdsbbNNbbNNbywNNbdNNbNDGCCCGIYGCbNNCNDGDCb*wNbNN",
"dsssddssssddssdNldsdldsysssdwwyssyywwwslldssdldsyssswsddsw*28www",
"yywwwy8888ww868ldsssds8688wyw86ww822226wyw6=2886=686=26662=*#*==",
"CCNCNNCCCCDGNdsDNbbNNDCNNCNNCCNNCGCCCNCDCNN=6DCNNDCCNCDNNNGDNCCC",
"CCCCCCCDDNCCbs8DNNDCCCNNNNCNCNNCCDDCCDCCNNN=8GCCDDDCCDGNNNCCNCDD",
"DCDCDCDCCNbbbw6DNNGCNCNNNCNNNCCCCNCDDDCCNNC*8YCCGDDDDGGCNCNNCDDG",
"NblbbblbNbNCCw2CNbbNNNNCDGGDGGIGDNNCDDDDCNC#6GNNCNCDCDGNNNNNNCCD",
"NbbCCCbNNbNNCy6DCCNCNNCCDCCCDDCDDDCCCCCDDCN#2DDDNNCGCDDCNCNCCDDC",
"NNNDDDCNbNNCCywGDCNCDCCCDNNNCDNCDGCNCCCCDCC#6DGGNCDGCCDDDCCDDDCC",
"CDGIIGCCCNCDNy8NNNDDDGGGDCCDDDGCCDDDCDDNNNb=8NCCNNCDNCDDCNIGIIIG",
"blldddlbNNbbd82ssddllbbblllbbbNllblbNCCNNNN8wdlldbllsssssylbbbbN",
"dsy888ddlbddy6=wywwyyssssddldddsyddlbNNNNNb88yyysssy8866668wsyss",
"bbNdsywwwwwysywsdddddsldydldysNdddddsssywww86=6wyyw6yyy662 #6626",
"DDDNblbbbNbNbbbbbbbbbbbblNNbysDCNNNNNCNbblbblsllllllNNCNld.6llbl",
"GGGGDCDCDGGGNCDCCDCCNNNCCDCNysGDCDDDCGGDCCDDDNDCNNNCGGGGDNO8DDDD",
"DDDGDDNNNCCDNDGCDGDDDDDDDGGDyyGDCDGDNDGCCDDCNNDDDNNDNNNDCC#yGGDD",
"IGDCCNCCCCCCNCDCDCCDDCDCNCCN88GDCCCCNDCNCCCNNNDDGCDGCCNDCC#wGDDD",
"YIDCNNDCCDCCCDDCCCCCCNCDNbNN68GGDCCNNCCbCCCNNCCDIDDGCCCDCCOwDCCD",
"GGGGGDNNbNCDGDDDGGDDDCCDCCNb68IIGCDCCDCNDGDCCDCDGCNNDGIGDC.6DCNC",
"DCCCDDCCDDGGCCNGGIGIIIIGDGDNyyCGGCDGDDDDDDCCDDCCDCCNCDDCDD.yGDDC",
"bblbbNNNCCCCllbCCCCDDDGDCCCNywbNCbCDCNNCNbbCCDNNNDCNNCDNCG*wDCCN",
"88688w82=226666y62=22=66888w62666w62=88=22=slGNbbNNbbNCCNb222226",
"lllblblbbdldsyyCbdbldsllllbNldbllNblbbbbbld68lssysyyssswwy666668",
"CDCDCCCDDCCClssIDCGCNNCCCCCGCCDCCDCCCCCDDCN*2dsssyywssswwwyw8wyy",
"DGGGDNDDDDCNCywGGGGCNNNCCCDDCCDGGIDDCNCGCCC6yGNCICCCGDDCCCGDbNNC",
"DDGDDDDDDDDDCsyIGDCDDGDCNCCCNCCCCCCCDDGDGDC2wGDGGCDDGGDGDCGDCCCC",
"DDDGDDGDDDDGNswIGDCDGGDDCCCCNCCCCCCDGGGDGDN=wIGIGDDIIGDGDCDDDDCC",
"CCDGIGGGDDGGbw6IIGCCDDCCDDCCCDCCDCCCCCCDGDb2wGGGGDGYIDCGGDGIGDCC",
"NCDDDCDCCCCCNy8GGGIDDDDGDDDCCCDCCCDDDGGGDCC6yDCDICDGGGGDDDDDDDDD",
"DDGGDDDCCCDCCswGIGIDDGIIGGDGCDGDDGDDGGGIDDD8wCCDGCDDGIIDDDDCCDGG",
"YYYYIIGIIIGDDbdIIIYIIYEEIGIIIIYIIYIIIIIIYYI8wNIIIDDDGIIGGDDDDDGG",
"lsyyssdsydddy86yssyssyyyw8wywwywwww88yy8yyy2=8888wwwww62688ww862",
"dsyyysssysddyyyyssyssyyywwww88sww8wwwsywyyy88wwwwwywyw8888=68622",
"IDCGDCCDDDGICGIDGGDDDIGGIGGDllGGDDGGDDDDDDGDGGIGDDCCGGDGDC#6lNbN",
"IDDGDDDDDDGIGIGCDDDGGDDDGIGCssGDDCDDDDCNCCGDDCGIGCCCIGDGDC*yDGGG",
"IGDIDDGDDDGGDGGCDDGGIDCCGGDNssGDCCCDGGDNCDGDCCIGGDDDGGGGDD*yGIII",
"IGDGCCGDCDDDCGIDDGGIIGDDCCDCdlGGCCCDIGGDDGGGGDGGIGGGIGIDDDOyIYYY",
"YIGIDCGDCGGDCDIDDDDGIDGGDDGCssIGGDCCDDGGGDCCCCDDDCDIDDIGGG*sGIII",
"YGGGDCGDCGGDNDGDDDDGGGGIDDDNysGIGDCDDDGGGDCCCCDDDCDGCCDDGI6sGGGI",
"GGDDDDDCCDDDNDDICCDGGIYICCNbwwDGGDDDCGIGGDDDDDDDDDGINNCDGGwdDIIG",
"IGIGGIIGGIIGYYIEIGGIGDDDGGGCllYEEIIIGGDGGGGIIYGIYIYEGGIGIGsbDGGI",
"bNNNNCCNNCCCCNNDCCCCCCbbbbblddCDDCNNbblbNNbNNCCNNNNDCNNNNNwsbbbb",
"6wwwwwy88yww622syysdddss666668wyyw886666w8688ww8668wyywwwy=26222",
"CCCDDDICbDCNbddGGDCCDDDDDCDDCNCDDCDDDCCDDClsdbCCNNCCGDNCCDDCCDCD",
"GDDGDDIDCIGDNblIIIGDDGIGIGIGGGGDGDGIGGGGGDNdlDDDDDDDGGDDGGIGDGGG",
"DDCGCNGDNIGGCllYIGIGDDGIIYIDIYGDCDGIIGIGDCCdNYIGDDDGGIGGDDGGIDGG",
"GDCIGDYGDGDNCldIIIIGIGGIYIGCDDGGGGIIGGIYIDDdbIGDCGGIGDDGGDCDDDDD",
"GDCDGDYGDIDCDldIGIIGGIGIIIIDDDGGIIGGGDGIGGDlbGDCCDGGDDDGGGCDDDDD",
"DDDDDDGGDGDDGblGIIGGDGGDGGGIIIIIIGDCCCDGDDClNGDDCCCDDDDGIGDDDDDD",
"DDDDGGGGDGGICddDGIGGGGIGIGGEYIDGIIIIIIIIDCCbNDDDGGGDCCNCDDDGGDDD",
"NNNNCCNNNNCCbsyNCCCNCCCCNNCYGDCDDDDDDDDCCNNlbCCCDDCNNNCNDGGGDCCC",
"sdlllldsdddddy8dlbssydddsslDDCCCCNlllllllllslNNbNNllNNCCDGYDNNbN",
"bbldddlbblddbdsbbNbbbCCNNbldwwsdddddllllddssddysddddsssyw8wssdds",
"CCNlllNNNNNbCNbNNCNNCCCCCNNdysNNNbbbNNNNNbbNbNbbbNNbbNNldsylNNbb",
"IDDNNNDDDGGDGGDDDDNCDDDDDDDNlNGIIGGDGIGIIGGGGGIGGIGIGGGDCNdNYIIG",
"DDDGGGGGDGIGDDDDGIGIGDDDDGDllbIGGGIGDGIGGIGIGDGGDIIIIGGIGDdNIIDD",
"DCDDDDGDDGGGDDDCDGIIIDDDCDDbdbGGIGGIGIIGGIGIIGIGGGGIIGGIGDdCIGDD",
"NCNCNCDCCDDDDGGCDDGGGDGGCCNNllDGGIIGIIIGGIGIIIIGGGGIGIGIGDdNIDDD",
"CCDNCCDDGDGGDGGCCCDDDCGGCCCbddDDDDGIIGIGGIIGGGDGDIIGIGDDDCybIDGG",
"CDDCDCGGIGGIGYYDDDGGGDGIDDDNddDDDGGGGIGIIGGGIGGGGGGIGGDGDNybIGGI",
"DDDDDGGIGIIIIEEGGIIGIDIYGGDNddDDDIDDIGGIGIIIIIGIGIIGIGDGDCwlIIIY"
};
