/* XPM */
static char *c46bd3d2557a4f19897238b0191e8d17sWvOPqS7vA7yNk8C[] = {
/* columns rows colors chars-per-pixel */
"64 64 24 1 ",
"  c #9CDCDC",
". c #00A8A8",
"X c #20B4B4",
"o c #48C0C0",
"O c #005858",
"+ c #00A4A4",
"@ c #74C8C8",
"# c #009898",
"$ c gray99",
"% c #008C8C",
"& c #007C7C",
"* c #009C9C",
"= c #006C6C",
"- c #007070",
"; c #D8F4F4",
": c #008484",
"> c #20B0B0",
", c #007878",
"< c #007474",
"1 c #B8E8E8",
"2 c #004040",
"3 c #646464",
"4 c gray22",
"5 c white",
/* pixels */
" .....XXXXXoooXoooXoXoXoXXXXXXXXXXXX...........................O",
" +..@@+.XXXXoXoXoXoooooXoXoXoXoXXXXXXXXXXXXXXXX...........@@+..O",
" #+@$ %&..XX.XXoXoXoXoooooooXoXoXoXoXoXXXXXXXXXXXXXXXXXXX@$ %&.O",
" ##@ +%&....X.XXXXXXoXoXoooooooooooXoXoXoXoXoXXXXXXXXXXXX@ +%&XO",
" %##+%&.++.....X.X.XXXXoXoXoooooooooooooooXoXoXoXoXoXXXXXX+%&..O",
" %%%##*+++++=...=.X.=XXX=XoX=Xoo=ooo=ooo=ooo=ooX=XoX=XoXoXXXXXXO",
" %%%%##**+++++.....X.X.XXXXXXoXoXoooooooooooooooooooooXoXoXoXoXO",
" %%%%%%##**------------------------------------------;oooooXoXoO",
" :%%%%%%###-OOOOOOOO--------------------------------@;oooooooooO",
" ::%>>+%%%#-O**#...+......X.X.XXXXXXXXoXoXoXoooooooo ;oooo@@+.oO",
"@&:> o%-%%%-O##**.#.#+.......X.X.X.X.XXXXoXoXoXooooo ;ooo@$ %&oO",
"@&&#o+%-%%%-O%##***#...+........X.XXXXXXXXXXXXoXoXoo ;ooo@ +%&oO",
"@&&&#%--:%%=O#%###***.#.#+.......X.X.X.X.XXXXXXXXoXo ;oooX+%&.oO",
"@&&&---&%:%=O%%#####**.#...+........X.X.XXXXXXXXXXXX ;oXoooooooO",
"@,&&&&::&::=O%%%%#%###**#.#.#+.........X.X.X.XXXXXXX ;XoXoXooooO",
"@,,&&&&::::=O%%%%%#%####**.#...+........X.X.XXXXXXXX ;XXXXoXoXoO",
"@,,,&&&&:::=O%%%%%%###%###**#.#.#+.........X.XXX.XXX ;XXXXXXXoXO",
"o,,:##%&&::=O:%:%%%%#%######**.#...+..........X.XXXX ;XXX.@@+.XO",
"o<,#X+%-&&:=O::%:%:%%#%#%####***#.#.#+.........X.X.X ;.XX@$ %&XO",
"o<,%++,O&&&=O:::%:%%%%%%#######***.#...+..........X. ;XXX@ +%&XO",
"o<<-,--O,&&OO:&::%:%:%%%%#%#%####***#.#.#+.......... ;.X.X+%&.XO",
"o<<=OOO=&,&OO&::::%:%%%%%%#########***.#...+........ ;X.XXXXXXXO",
"o-<<<,,,,&,OO&&:&::::%:%%%%#%#%#%###****#.#.#+...... ;...X.X.X.O",
"o-<<<,,,,,&OO&&&::::::%%%%%%#%########****.#...+.... ;......X.XO",
"o=-<<<<,,,,OO&&&&:&::::%:%%%%#%#%#%#####****#.#.#+.. ;.......X.O",
"o=-&#%:<,,,OO&&&&&::::::%:%%%%%%##########****.#...+@;....@@+..O",
"o==#X#%-<,,OO&&&&&&:&::::%:%%%%%%#%#%######**#**#.#.@;...@$ %&.O",
"o-=%#%-O<<,OO,&&&&&&::::::%:%%%%%%#%#########*****.#@1.+.@ +%&.O",
"o<----OO<,,OO&,&&&&&&:&::::%:%%%%%%#%#%########*****@1#.#X+%&..O",
"o<-=OOO=<<,OO,&,&&&&&&:&::::%:%%%%%%%%#%#%#######***@1.#...+...O",
"o,<-==-<<<<OO,,&,&&&&&&:&::::::%:%%%%%%#%##########*@1**#.#.#+.O",
"X,<-==--<<<OO,,,&,&&&&&&:&::::::%%%%%%%%#%#%########@1*#**.#..+O",
"X,,<-==-<<<OO,,,,&,&&&&&&:&::::::%:%:%%%%#%#########@1#*****#.#O",
"X,,&%&==-<<OO<,,,,&,&&&&&&:&::::::%:%%%%%%%%#%######@1###.@@+.+O",
"X,,%+#&---<OO<<,,,,&,&&&&&&:&:&::::%:%:%%%%%%#%#%###o ###@$ %&*O",
"X&,%#%-O=-<OO<<<,,,,&,&&&&&&:&::::::%:%%%%%%%%#%####o ###@ +%&#O",
"X&,---OO==-OO<<<<,,,,&,&&&&&&:&:&::::%:%:%%%%%%#%#%#o ####+%&.*O",
">&&=OOO===-OO<<<,<,,,,&,&&&&&&&&::::::%:%%%%%%%%%%#%o #########O",
">&&,,<<-===OO<<<<,<,,,,&,&&&&&&:&:&::::%:%:%%%%%%#%#o #########O",
">&&,,,<--==OO<<<<<,<,,,,&,&&&&&&&&::::::::%%%%%%%%%%o@#########O",
">&&&,,<<--=OO-<<<<<,,,,,,&,&&&&&&:&:&:&::::%:%%%%%%%o@%###%####O",
">&&:#%,---=OO--<<<<<,,,,,,&,&&&&&&&&::::::::%:%%%%%%o@%%#.oo+%#O",
">:&#X#%-<--OO=-<<<<<<,,,,,,&,&&&&&&:&:&:&::::%:%%%%%o@%#%o @%&#O",
">:&%#%-O<--OO=--<<<<<<,,,,,,&,&&&&&&&&::::::::%:%%%%X@%%%X@@%&#O",
">::---OO<<-OO==--<<<<<<,,,,,,&,&&&&&&:&:&:&::::%:%%%X@%%%%+%&%%O",
">::=OOO=<<-OO===-<<<<<<<,,,,,,&,&&&&&&&&:&::::::%:%%X@%%%%%%#%%O",
">::&&&,,,<<OO===--<<<<<,<,,,,,,&,&&&&&&:&:&:&::::%:%Xo%%%%%%%#%O",
">:::&&,,,<<OO-===--<<<<<,<,,,,,,&,&&&&&&&&:&::::::::Xo%%%%%%%%%O",
">:::&&&,,,<OO-====-<<<<<<,<,,,,,,&,&&&&&&:&:&:&:::::>o%%%%%%%%%O",
">:::#%%&,,<OO--===--<<<<<<,<,,,,,,&,&&&&&&&&:&::::::>o%:%%XX+%%O",
">::#X#%-,,<OO---===--<<<<<<,<,,,,,,&,&&&&&&:&:&:&:::+o:%:X o%&%O",
">::%#%-O,,,OO---====-<<<<<<<,<,,,,,,&,&&&&&&&&:&::::+X::%Xo+:-%O",
">%:---OO,,,OO<---===-=<<<<<<<,,,,,,,,&,&&&&&&:&:&:&:+X:::%+%&-%O",
">%:=OOO=&,,O=%%%::::::::%%%%%%%%%%%%%%%%%%%%%%####+++X::::%--%%O",
">%::::&&&,,O:##%%%%%%%%%%%%%#######++++++++++++++>XXXX:::::%%%%O",
">%::::&&&&,,<<<---====-=<<<<<<,,,,,,,,,&&,&&&&&&&&:&:::::::::%%O",
">%::::&&&&,,2<<<2--=2==-2<<<2<<,2,,,2,,,2&,&2&&&2:&:2:&:::::::%O",
">%%&##,&&&,,,<<<----====-<<<<<<<,,,,,,,,,,&,&&&&&&&&:&::::++%::O",
">%%#o>&=&&&,,,<<<---====-=<<<<<<<,<,,,,,,,,&,&&&&&&:&:&:&+@X%-:O",
">%%#>:=O&&&,,,<<<----====--<<<<<<<,<,,,,,,,,&,&&&&&&&&:&:+X+:-:O",
">%%&==OO&&&&,,,<<<---=====-<<<<<<<<,<,,,,,,,,&,&&&&&&:&:&:::--:O",
">%%=OOO-&&&&,,,<<<----====-=<<<<<<<<,<,,,,,,,,&,&&&&&&&&:&---::O",
"3333333333333333333333333333333333333333333333333333333333333333",
"4444444444444444444444444444444444444444444444444444444444444444"
};
